<?xml version="1.0" encoding="utf-8"?>
<!-- Generator: Adobe Illustrator 23.0.1, SVG Export Plug-In . SVG Version: 6.00 Build 0)  -->
<svg version="1.1" id="Livello_1" xmlns="http://www.w3.org/2000/svg" xmlns:xlink="http://www.w3.org/1999/xlink" x="0px" y="0px"
	 viewBox="0 0 43 43" style="enable-background:new 0 0 43 43;" xml:space="preserve">
<style type="text/css">
	.st0{fill-rule:evenodd;clip-rule:evenodd;fill:#6B2FBC;}
</style>
<path class="st0" d="M15.7,36.2l5.5-15l4.6,14.4c0.1,0.7,0.3,1.3,0.6,1.9l0,0.1l0,0c1.3,2.7,4.1,4.6,7.3,4.6c4.5,0,8.1-3.6,8.1-8.1
	c0-3-1.6-5.6-4.1-7l0-0.1l-0.9-0.3c-0.2-0.1-0.4-0.2-0.6-0.2L21.4,21l14.5-4.7c0.7-0.1,1.3-0.3,1.9-0.6l0.1,0l0,0
	c2.7-1.3,4.6-4.1,4.6-7.3c0-4.5-3.6-8.1-8.1-8.1c-3,0-5.6,1.6-7,4.1l-0.1,0l-0.3,0.9c-0.1,0.2-0.2,0.4-0.2,0.6l-5.5,14.9L16.6,6.5
	c-0.1-0.7-0.3-1.3-0.6-1.9l0-0.1l0,0C14.6,1.9,11.9,0,8.6,0C4.2,0,0.6,3.6,0.6,8.1c0,3,1.6,5.6,4.1,7l0,0.1l0.9,0.3
	c0.2,0.1,0.4,0.2,0.6,0.2L21,21.2L6.6,25.9c-0.7,0.1-1.3,0.3-1.9,0.6l-0.1,0l0,0C1.9,27.8,0,30.6,0,33.8c0,4.5,3.6,8.1,8.1,8.1
	c3,0,5.6-1.6,7-4.1l0.1,0l0.3-0.9C15.6,36.7,15.7,36.5,15.7,36.2z"/>
</svg>
